<svg xmlns="http://www.w3.org/2000/svg" viewBox="0 0 142.61 90.71"><title>Ресурс 1logo</title><g id="Слой_2" data-name="Слой 2"><g id="Слой_1-2" data-name="Слой 1"><rect y="45.39" width="142.61" height="45.32" style="fill:#141414"/><path d="M13,39a31.38,31.38,0,0,0,4.87-.36,18.27,18.27,0,0,0,4.26-1.18,11.55,11.55,0,0,0,3.41-2.28,10,10,0,0,0,2.25-3.56,14.45,14.45,0,0,0,.79-5A11,11,0,0,0,28,22.8a8.61,8.61,0,0,0-1.58-2.74,10.05,10.05,0,0,0-2.28-2,22.09,22.09,0,0,0-2.65-1.4c-.94-.36-1.86-.73-2.77-1.06-.55-.18-1.19-.4-1.86-.64a14.45,14.45,0,0,1-2-.88,5.75,5.75,0,0,1-1.52-1.28A3.17,3.17,0,0,1,12.72,11,3.51,3.51,0,0,1,13.27,9,3,3,0,0,1,14.67,8a6.94,6.94,0,0,1,1.86-.43c.64-.06,1.31-.06,1.92-.06a18.19,18.19,0,0,1,4.14.46,22.33,22.33,0,0,1,3.93,1.34V1.37c-.88-.27-1.77-.52-2.68-.73A26,26,0,0,0,21,.18,28.42,28.42,0,0,0,17.66,0a32.17,32.17,0,0,0-4.54.33A18.73,18.73,0,0,0,8.89,1.43a13.16,13.16,0,0,0-3.5,2.13A9.15,9.15,0,0,0,3,6.87a11.46,11.46,0,0,0-.88,4.68,11.71,11.71,0,0,0,.58,3.92A9,9,0,0,0,4.23,18.3a11.41,11.41,0,0,0,2.22,2,19.93,19.93,0,0,0,2.65,1.4c.91.36,1.83.73,2.74,1.06q1,.32,2,.73a9.08,9.08,0,0,1,2,.94,4.58,4.58,0,0,1,1.55,1.4A3.67,3.67,0,0,1,18,27.88a3.51,3.51,0,0,1-.64,2.28,3.3,3.3,0,0,1-1.8,1.09,12.4,12.4,0,0,1-2.77.27,20.07,20.07,0,0,1-3.93-.36,22.77,22.77,0,0,1-3.44-.91A25.81,25.81,0,0,1,2.5,28.94v8.45a36.28,36.28,0,0,0,5.18,1.21A38.07,38.07,0,0,0,13,39" style="fill:#141414"/><polygon points="53.36 8.36 65.93 8.36 65.93 0.64 30.44 0.64 30.44 8.36 43.07 8.36 43.07 38.36 53.36 38.36 53.36 8.36" style="fill:#141414"/><polygon points="131.96 38.36 142.19 38.36 142.19 0.64 130.47 0.64 121.82 10.06 113.18 0.64 101.4 0.64 101.4 38.36 111.63 38.36 111.63 10.61 111.78 10.61 121.82 21.52 131.78 10.61 131.96 10.61 131.96 38.36" style="fill:#141414"/><rect x="69.77" y="0.64" width="27.18" height="7.75" style="fill:#fff"/><rect x="69.77" y="30.55" width="27.18" height="7.72" style="fill:#de291c"/><rect x="69.77" y="15.6" width="27.18" height="7.72" style="fill:#ed7d00"/><path d="M121.27,61.1a5.07,5.07,0,0,0-1.79-4.22,8.49,8.49,0,0,0-5.36-1.4,8.44,8.44,0,0,0-5.33,1.4A5.06,5.06,0,0,0,107,61.1V74.57a5.06,5.06,0,0,0,1.8,4.23,8.44,8.44,0,0,0,5.33,1.4,8.49,8.49,0,0,0,5.36-1.4,5.07,5.07,0,0,0,1.79-4.23Zm-4.5,13.47a1.3,1.3,0,0,1-.67,1.16,4.15,4.15,0,0,1-2,.36,4,4,0,0,1-1.95-.36,1.25,1.25,0,0,1-.67-1.16V61.1a1.17,1.17,0,0,1,.67-1.12,4,4,0,0,1,1.95-.37,4.16,4.16,0,0,1,2,.37,1.22,1.22,0,0,1,.67,1.12Z" style="fill:#fff"/><polygon points="103.62 70.98 103.62 55.84 99.14 55.84 99.14 64.08 103.62 70.98" style="fill:#fff"/><polygon points="89.37 79.83 93.88 79.83 93.88 67.09 102.71 80.19 103.62 80.19 103.62 75.42 99.14 68.52 99.14 68.58 90.32 55.48 89.37 55.48 89.37 79.83" style="fill:#fff"/><polygon points="81.12 65.78 75.89 65.78 75.89 55.84 71.38 55.84 71.38 79.83 75.89 79.83 75.89 69.89 81.12 69.89 81.12 79.83 85.63 79.83 85.63 55.84 81.12 55.84 81.12 65.78" style="fill:#fff"/><path d="M68.19,61.1a5.13,5.13,0,0,0-1.77-4.22,8.54,8.54,0,0,0-5.36-1.4,8.55,8.55,0,0,0-5.36,1.4,5,5,0,0,0-1.76,4.22V74.57a5.05,5.05,0,0,0,1.76,4.23,8.55,8.55,0,0,0,5.36,1.4,8.54,8.54,0,0,0,5.36-1.4,5.13,5.13,0,0,0,1.77-4.23V70.83H63.68v3.74A1.28,1.28,0,0,1,63,75.72a4.25,4.25,0,0,1-2,.37,4.17,4.17,0,0,1-2-.37,1.28,1.28,0,0,1-.64-1.15V61.1A1.2,1.2,0,0,1,59.08,60a4.17,4.17,0,0,1,2-.36A4.25,4.25,0,0,1,63,60a1.2,1.2,0,0,1,.64,1.12v3.74h4.51Z" style="fill:#fff"/><rect x="26.36" y="62.38" width="4.5" height="17.45" style="fill:#fff"/><rect x="21.49" y="55.84" width="14.25" height="4.13" style="fill:#fff"/><rect x="37.99" y="55.84" width="12.75" height="4.13" style="fill:#fff"/><rect x="37.99" y="65.78" width="12.75" height="4.1" style="fill:#fff"/><rect x="37.99" y="75.75" width="12.75" height="4.13" style="fill:#fff"/></g></g></svg>